<?xml version="1.0" encoding="UTF-8"?>
<svg width="750px" height="500px" viewBox="0 0 750 500" version="1.1" xmlns="http://www.w3.org/2000/svg" xmlns:xlink="http://www.w3.org/1999/xlink">
    <title>Group 13</title>
    <g id="Website" stroke="none" stroke-width="1" fill="none" fill-rule="evenodd">
        <g id="Group-13">
            <rect id="Rectangle" fill-opacity="0.75" fill="#FFFFFF" x="0" y="0" width="750" height="500"></rect>
            <g id="undraw_online_articles_79ff-copy" transform="translate(42.000000, 75.000000)" fill-rule="nonzero">
                <rect id="Rectangle" fill="#AFAFAD" x="460.92592" y="80.9421842" width="136.40257" height="248.82227"></rect>
                <polygon id="Path" fill="#FFFFFF" points="473.666819 317.023555 584.58759 317.023555 584.58759 93.6830835 473.666819 93.6830835"></polygon>
                <rect id="Rectangle" fill="#AFAFAD" x="516.286724" y="141.584803" width="32.3942987" height="3.00828373"></rect>
                <rect id="Rectangle" fill="#AFAFAD" x="516.286724" y="151.99139" width="56.460546" height="3.00828373"></rect>
                <rect id="Rectangle" fill="#AFAFAD" x="516.286724" y="162.397984" width="56.405258" height="3.00828373"></rect>
                <rect id="Rectangle" fill="#AFAFAD" x="485.507132" y="141.629471" width="24.0662473" height="24.0662473"></rect>
                <rect id="Rectangle" fill="#AFAFAD" x="516.286724" y="193.297865" width="32.3942987" height="3.00828373"></rect>
                <rect id="Rectangle" fill="#AFAFAD" x="516.286724" y="203.704452" width="56.460546" height="3.00828373"></rect>
                <rect id="Rectangle" fill="#AFAFAD" x="516.286724" y="214.111046" width="56.405258" height="3.00828373"></rect>
                <rect id="Rectangle" fill="#AFAFAD" x="485.507132" y="193.342533" width="24.0662473" height="24.0662473"></rect>
                <rect id="Rectangle" fill="#AFAFAD" x="516.286724" y="245.010927" width="32.3942987" height="3.00828373"></rect>
                <rect id="Rectangle" fill="#AFAFAD" x="516.286724" y="255.417514" width="56.460546" height="3.00828373"></rect>
                <rect id="Rectangle" fill="#AFAFAD" x="516.286724" y="265.824108" width="56.405258" height="3.00828373"></rect>
                <rect id="Rectangle" fill="#AFAFAD" x="485.507132" y="245.055595" width="24.0662473" height="24.0662473"></rect>
                <rect id="Rectangle" fill="#AFAFAD" x="80.1978683" y="80.9421842" width="136.40257" height="248.82227"></rect>
                <polygon id="Path" fill="#FFFFFF" points="92.9387677 317.023555 203.859539 317.023555 203.859539 93.6830835 92.9387677 93.6830835"></polygon>
                <rect id="Rectangle" fill="#AFAFAD" x="135.558672" y="141.584803" width="32.3942987" height="3.00828373"></rect>
                <rect id="Rectangle" fill="#AFAFAD" x="135.558672" y="151.99139" width="56.460546" height="3.00828373"></rect>
                <rect id="Rectangle" fill="#AFAFAD" x="135.558672" y="162.397984" width="56.405258" height="3.00828373"></rect>
                <rect id="Rectangle" fill="#AFAFAD" x="104.77908" y="141.629471" width="24.0662473" height="24.0662473"></rect>
                <rect id="Rectangle" fill="#AFAFAD" x="135.558672" y="193.297865" width="32.3942987" height="3.00828373"></rect>
                <rect id="Rectangle" fill="#AFAFAD" x="135.558672" y="203.704452" width="56.460546" height="3.00828373"></rect>
                <rect id="Rectangle" fill="#AFAFAD" x="135.558672" y="214.111046" width="56.405258" height="3.00828373"></rect>
                <rect id="Rectangle" fill="#AFAFAD" x="104.77908" y="193.342533" width="24.0662473" height="24.0662473"></rect>
                <rect id="Rectangle" fill="#AFAFAD" x="135.558672" y="245.010927" width="32.3942987" height="3.00828373"></rect>
                <rect id="Rectangle" fill="#AFAFAD" x="135.558672" y="255.417514" width="56.460546" height="3.00828373"></rect>
                <rect id="Rectangle" fill="#AFAFAD" x="135.558672" y="265.824108" width="56.405258" height="3.00828373"></rect>
                <rect id="Rectangle" fill="#AFAFAD" x="104.77908" y="245.055595" width="24.0662473" height="24.0662473"></rect>
                <ellipse id="Oval" fill="#AFAFAD" cx="332.764696" cy="336.509636" rx="332.764696" ry="13.490364"></ellipse>
                <rect id="Rectangle" fill="#363732" x="245.910824" y="0" width="185.704701" height="338.75803"></rect>
                <polygon id="Path" fill="#FFFFFF" points="253.935785 330.139186 423.590603 330.139186 423.590603 8.61884368 253.935785 8.61884368"></polygon>
                <rect id="Rectangle" fill="#226CE0" x="321.281563" y="82.5616349" width="44.1030803" height="4.09560707"></rect>
                <rect id="Rectangle" fill="#E6E6E6" x="321.281563" y="96.7296424" width="76.8679668" height="4.09560707"></rect>
                <rect id="Rectangle" fill="#E6E6E6" x="321.281563" y="110.897657" width="76.7926981" height="4.09560707"></rect>
                <rect id="Rectangle" fill="#226CE0" x="279.37682" y="82.6224465" width="32.7648865" height="32.7648865"></rect>
                <rect id="Rectangle" fill="#226CE0" x="321.281563" y="152.966166" width="44.1030803" height="4.09560707"></rect>
                <rect id="Rectangle" fill="#E6E6E6" x="321.281563" y="167.134173" width="76.8679668" height="4.09560707"></rect>
                <rect id="Rectangle" fill="#E6E6E6" x="321.281563" y="181.302188" width="76.7926981" height="4.09560707"></rect>
                <rect id="Rectangle" fill="#226CE0" x="279.37682" y="153.026978" width="32.7648865" height="32.7648865"></rect>
                <rect id="Rectangle" fill="#226CE0" x="321.281563" y="223.370697" width="44.1030803" height="4.09560707"></rect>
                <rect id="Rectangle" fill="#E6E6E6" x="321.281563" y="237.538704" width="76.8679668" height="4.09560707"></rect>
                <rect id="Rectangle" fill="#E6E6E6" x="321.281563" y="251.706719" width="76.7926981" height="4.09560707"></rect>
                <rect id="Rectangle" fill="#226CE0" x="279.37682" y="223.431509" width="32.7648865" height="32.7648865"></rect>
            </g>
        </g>
    </g>
</svg>