<?xml version="1.0" encoding="UTF-8"?>
<svg width="750px" height="500px" viewBox="0 0 750 500" version="1.1" xmlns="http://www.w3.org/2000/svg" xmlns:xlink="http://www.w3.org/1999/xlink">
    <title>Group 12</title>
    <g id="Website" stroke="none" stroke-width="1" fill="none" fill-rule="evenodd">
        <g id="Group-12">
            <rect id="Rectangle-Copy-4" fill-opacity="0.75" fill="#363732" x="0" y="0" width="750" height="500"></rect>
            <g id="undraw_proud_coder_7ain-copy" transform="translate(102.000000, 75.000000)" fill-rule="nonzero">
                <rect id="Rectangle" fill="#E6E6E6" x="0.367303571" y="0.3095" width="545.947732" height="349.649214"></rect>
                <rect id="Rectangle" fill="#FFFFFF" x="15.9785536" y="44.1642321" width="514.725223" height="285.109205"></rect>
                <rect id="Rectangle" fill="#226CE0" x="0.134196429" y="0" width="545.947732" height="23.1938571"></rect>
                <circle id="Oval" fill="#FFFFFF" cx="17.3700089" cy="11.8579286" r="4.29880357"></circle>
                <circle id="Oval" fill="#FFFFFF" cx="33.6871875" cy="11.8579286" r="4.29880357"></circle>
                <circle id="Oval" fill="#FFFFFF" cx="50.0043661" cy="11.8579286" r="4.29880357"></circle>
                <path d="M385.059705,70.8683929 L217.481902,70.8683929 C216.741957,70.7708796 216.188852,70.140101 216.188852,69.3937589 C216.188852,68.6474169 216.741957,68.0166383 217.481902,67.919125 L385.059705,67.919125 C385.79965,68.0166383 386.352755,68.6474169 386.352755,69.3937589 C386.352755,70.140101 385.79965,70.7708796 385.059705,70.8683929 L385.059705,70.8683929 Z" id="Path" fill="#CCCCCC"></path>
                <path d="M268.944839,87.0893214 L162.398464,87.0893214 C161.658535,86.9917929 161.105448,86.361021 161.105448,85.614692 C161.105448,84.8683629 161.658535,84.2375911 162.398464,84.1400625 L268.944839,84.1400625 C269.684768,84.2375911 270.237855,84.8683629 270.237855,85.614692 C270.237855,86.361021 269.684768,86.9917929 268.944839,87.0893214 Z" id="Path" fill="#CCCCCC"></path>
                <path d="M385.059705,87.3842589 L278.513321,87.3842589 C277.773392,87.2867304 277.220305,86.6559585 277.220305,85.9096295 C277.220305,85.1633004 277.773392,84.5325286 278.513321,84.435 L385.05975,84.435 C385.799679,84.5325286 386.352766,85.1633004 386.352766,85.9096295 C386.352766,86.6559585 385.799679,87.2867304 385.05975,87.3842589 L385.059705,87.3842589 Z" id="Path" fill="#CCCCCC"></path>
                <path d="M269.203446,103.310277 L162.657071,103.310277 C161.917142,103.212748 161.364055,102.581976 161.364055,101.835647 C161.364055,101.089318 161.917142,100.458546 162.657071,100.361018 L269.203446,100.361018 C269.943376,100.458546 270.496462,101.089318 270.496462,101.835647 C270.496462,102.581976 269.943376,103.212748 269.203446,103.310277 L269.203446,103.310277 Z" id="Path" fill="#CCCCCC"></path>
                <path d="M269.462054,119.531223 L162.915679,119.531223 C162.175749,119.433695 161.622663,118.802923 161.622663,118.056594 C161.622663,117.310265 162.175749,116.679493 162.915679,116.581964 L269.462054,116.581964 C270.201983,116.679493 270.75507,117.310265 270.75507,118.056594 C270.75507,118.802923 270.201983,119.433695 269.462054,119.531223 Z" id="Path" fill="#CCCCCC"></path>
                <path d="M317.821696,103.310277 L287.305991,103.310277 C286.566062,103.212748 286.012975,102.581976 286.012975,101.835647 C286.012975,101.089318 286.566062,100.458546 287.305991,100.361018 L317.821696,100.361018 C318.561626,100.458546 319.114712,101.089318 319.114712,101.835647 C319.114712,102.581976 318.561626,103.212748 317.821696,103.310277 L317.821696,103.310277 Z" id="Path" fill="#CCCCCC"></path>
                <path d="M317.821696,119.236295 L287.305991,119.236295 C286.566062,119.138766 286.012975,118.507994 286.012975,117.761665 C286.012975,117.015336 286.566062,116.384564 287.305991,116.287036 L317.821696,116.287036 C318.561626,116.384564 319.114712,117.015336 319.114712,117.761665 C319.114712,118.507994 318.561626,119.138766 317.821696,119.236295 L317.821696,119.236295 Z" id="Path" fill="#CCCCCC"></path>
                <path d="M369.026027,119.236295 L338.510313,119.236295 C337.770383,119.138766 337.217297,118.507994 337.217297,117.761665 C337.217297,117.015336 337.770383,116.384564 338.510313,116.287036 L369.026027,116.287036 C369.765956,116.384564 370.319043,117.015336 370.319043,117.761665 C370.319043,118.507994 369.765956,119.138766 369.026027,119.236295 L369.026027,119.236295 Z" id="Path" fill="#CCCCCC"></path>
                <path d="M192.138348,70.8683929 L161.622634,70.8683929 C160.88269,70.7708796 160.329584,70.140101 160.329584,69.3937589 C160.329584,68.6474169 160.88269,68.0166383 161.622634,67.919125 L192.138348,67.919125 C192.878293,68.0166383 193.431398,68.6474169 193.431398,69.3937589 C193.431398,70.140101 192.878293,70.7708796 192.138348,70.8683929 L192.138348,70.8683929 Z" id="Path" fill="#CCCCCC"></path>
                <path d="M268.556929,256.855705 L162.010545,256.855705 C161.270615,256.758177 160.717529,256.127405 160.717529,255.381076 C160.717529,254.634747 161.270615,254.003975 162.010545,253.906446 L268.556973,253.906446 C269.296902,254.003975 269.849989,254.634747 269.849989,255.381076 C269.849989,256.127405 269.296902,256.758177 268.556973,256.855705 L268.556929,256.855705 Z" id="Path" fill="#CCCCCC"></path>
                <path d="M268.039714,289.297598 L161.49333,289.297598 C160.753386,289.200085 160.20028,288.569306 160.20028,287.822964 C160.20028,287.076622 160.753386,286.445844 161.49333,286.34833 L268.039759,286.34833 C268.779703,286.445844 269.332809,287.076622 269.332809,287.822964 C269.332809,288.569306 268.779703,289.200085 268.039759,289.297598 L268.039714,289.297598 Z" id="Path" fill="#CCCCCC"></path>
                <path d="M268.298321,305.518545 L161.751938,305.518545 C161.011993,305.421031 160.458888,304.790253 160.458888,304.043911 C160.458888,303.297569 161.011993,302.66679 161.751938,302.569277 L268.298366,302.569277 C269.03831,302.66679 269.591416,303.297569 269.591416,304.043911 C269.591416,304.790253 269.03831,305.421031 268.298366,305.518545 L268.298321,305.518545 Z" id="Path" fill="#CCCCCC"></path>
                <path d="M313.813277,289.592527 L283.297571,289.592527 C282.557627,289.495014 282.004522,288.864235 282.004522,288.117893 C282.004522,287.371551 282.557627,286.740772 283.297571,286.643259 L313.813277,286.643259 C314.553221,286.740772 315.106327,287.371551 315.106327,288.117893 C315.106327,288.864235 314.553221,289.495014 313.813277,289.592527 L313.813277,289.592527 Z" id="Path" fill="#CCCCCC"></path>
                <path d="M313.813277,305.518545 L283.297571,305.518545 C282.557627,305.421031 282.004522,304.790253 282.004522,304.043911 C282.004522,303.297569 282.557627,302.66679 283.297571,302.569277 L313.813277,302.569277 C314.553221,302.66679 315.106327,303.297569 315.106327,304.043911 C315.106327,304.790253 314.553221,305.421031 313.813277,305.518545 L313.813277,305.518545 Z" id="Path" fill="#CCCCCC"></path>
                <path d="M365.017607,289.592527 L334.501893,289.592527 C333.761949,289.495014 333.208843,288.864235 333.208843,288.117893 C333.208843,287.371551 333.761949,286.740772 334.501893,286.643259 L365.017607,286.643259 C365.757551,286.740772 366.310657,287.371551 366.310657,288.117893 C366.310657,288.864235 365.757551,289.495014 365.017607,289.592527 L365.017607,289.592527 Z" id="Path" fill="#CCCCCC"></path>
                <path d="M385.189009,273.076652 L217.611205,273.076652 C216.871276,272.979123 216.318189,272.348351 216.318189,271.602022 C216.318189,270.855693 216.871276,270.224921 217.611205,270.127393 L385.189009,270.127393 C385.928938,270.224921 386.482025,270.855693 386.482025,271.602022 C386.482025,272.348351 385.928938,272.979123 385.189009,273.076652 L385.189009,273.076652 Z" id="Path" fill="#CCCCCC"></path>
                <path d="M192.267652,273.076652 L161.751938,273.076652 C161.012008,272.979123 160.458922,272.348351 160.458922,271.602022 C160.458922,270.855693 161.012008,270.224921 161.751938,270.127393 L192.267652,270.127393 C193.007581,270.224921 193.560668,270.855693 193.560668,271.602022 C193.560668,272.348351 193.007581,272.979123 192.267652,273.076652 L192.267652,273.076652 Z" id="Path" fill="#CCCCCC"></path>
                <polygon id="Path" fill="#E6E6E6" points="242.825893 145.733036 201.448214 186.59375 242.825893 227.453571 252.135714 218.14375 220.84375 186.851786 252.39375 155.301786"></polygon>
                <polygon id="Path" fill="#E6E6E6" points="303.857143 145.733036 345.233929 186.59375 303.857143 227.453571 294.547321 218.14375 325.838393 186.851786 294.288393 155.301786"></polygon>
                <polygon id="Path" fill="#226CE0" points="242.825893 145.733036 201.448214 186.59375 242.825893 227.453571 252.135714 218.14375 220.84375 186.851786 252.39375 155.301786"></polygon>
                <polygon id="Path" fill="#226CE0" points="303.857143 145.733036 345.233929 186.59375 303.857143 227.453571 294.547321 218.14375 325.838393 186.851786 294.288393 155.301786"></polygon>
            </g>
        </g>
    </g>
</svg>