<?xml version="1.0" encoding="UTF-8"?>
<svg width="195px" height="195px" viewBox="0 0 195 195" version="1.1" xmlns="http://www.w3.org/2000/svg" xmlns:xlink="http://www.w3.org/1999/xlink">
    <!-- Generator: Sketch 61.2 (89653) - https://sketch.com -->
    <title>Group 4</title>
    <desc>Created with Sketch.</desc>
    <g id="Page-1" stroke="none" stroke-width="1" fill="none" fill-rule="evenodd">
        <g id="Group-4">
            <rect id="Rectangle-path" fill-opacity="0.01" fill="#FFFFFF" fill-rule="nonzero" x="0" y="0" width="195" height="195"></rect>
            <g id="dribbble-ball-mark" transform="translate(27.000000, 28.000000)" fill="#EA4C89">
                <path d="M70,0 C31.3558,0 0,31.3558 0,70 C0,108.6442 31.3558,140 70,140 C108.56832,140 140,108.6442 140,70 C140,31.3558 108.56832,0 70,0 Z M116.2364,32.26678 C124.58782,42.4403 129.5987,55.42306 129.7506,69.46856 C127.7766,69.08888 108.03688,65.06514 88.1454,67.57044 C87.68984,66.58358 87.31016,65.52056 86.85474,64.45768 C85.63996,61.5727 84.27328,58.6117 82.90674,55.8026 C104.92412,46.84386 114.94574,33.93712 116.2364,32.26678 Z M70,10.325378 C85.1844,10.325378 99.07814,16.0195 109.6312,25.35792 C108.56832,26.87636 99.53356,38.948 78.27554,46.91974 C68.48156,28.92624 57.6247,14.1974 55.9545,11.91974 C60.4338,10.856832 65.14102,10.325378 70,10.325378 Z M44.5662,15.94362 C46.16052,18.06938 56.7896,32.87424 66.73534,50.48806 C38.7961,57.92836 14.12152,57.7768331 11.464208,57.7768331 C15.33616,39.25166 27.86336,23.83948 44.5662,15.94362 Z M10.173534,70.07588 C10.173534,69.46856 10.173534,68.86124 10.173534,68.25378 C12.754882,68.32966 41.7571,68.70934 71.59432,59.7506 C73.34054,63.09114 74.93486,66.50756 76.4533,69.92412 C75.69408,70.1519 74.85898,70.37968 74.09976,70.60732 C43.27554,80.5532 26.87636,107.73322 25.50982,110.01088 C16.0195,99.45768 10.173534,85.41218 10.173534,70.07588 Z M70,129.82648 C56.18228,129.82648 43.4273,125.11926 33.32966,117.2234 C34.39268,115.02176 46.5402,91.6377 80.2494,79.86986 C80.4013,79.79398 80.47718,79.79398 80.62908,79.71796 C89.05638,101.50756 92.47294,119.80472 93.38392,125.04338 C86.1714,128.15614 78.27554,129.82648 70,129.82648 Z M103.3298,119.57708 C102.72234,115.93274 99.5337,98.47068 91.71372,76.98488 C110.46644,74.02388 126.86548,78.88286 128.91536,79.5662 C126.33404,96.19302 116.76784,110.54232 103.3298,119.57708 Z" id="Shape"></path>
            </g>
        </g>
    </g>
</svg>