<?xml version="1.0" encoding="UTF-8"?>
<svg width="78px" height="78px" viewBox="0 0 78 78" version="1.1" xmlns="http://www.w3.org/2000/svg" xmlns:xlink="http://www.w3.org/1999/xlink">
    <!-- Generator: Sketch 64 (93537) - https://sketch.com -->
    <title>Group 2</title>
    <desc>Created with Sketch.</desc>
    <g id="Website" stroke="none" stroke-width="1" fill="none" fill-rule="evenodd">
        <g id="Desktop-HD" transform="translate(-474.000000, -1970.000000)">
            <g id="Group-3" transform="translate(474.000000, 1970.000000)">
                <g id="Group-2">
                    <rect id="Rectangle" fill-opacity="0.01" fill="#D8D8D8" x="0" y="0" width="78" height="78"></rect>
                    <path d="M61.8760018,27.124 L49.9040018,39.304 C49.8614584,39.3447431 49.8374006,39.4010939 49.8374006,39.46 C49.8374006,39.5189061 49.8614584,39.5752569 49.9040018,39.616 L58.3040018,48.548 C58.7148688,48.9619787 58.8372482,49.5820553 58.6144699,50.1210914 C58.3916916,50.6601275 57.8672516,51.0128799 57.2840018,51.016 C56.9001202,51.0151847 56.5320934,50.8627986 56.2600018,50.592 L47.9040018,41.692 C47.8152485,41.6045754 47.672755,41.6045754 47.5840018,41.692 L45.5480018,43.748 C43.8639529,45.4701638 41.5567085,46.4406484 39.1480018,46.44 C36.6938329,46.4286108 34.3472559,45.4311714 32.6360018,43.672 L30.6800018,41.672 C30.5912485,41.5845754 30.448755,41.5845754 30.3600018,41.672 L22.0240018,50.552 C21.7531233,50.8233767 21.3854342,50.9758765 21.0020018,50.9758765 C20.6185693,50.9758765 20.2508802,50.8233767 19.9800018,50.552 C19.7076379,50.2816473 19.5544553,49.9137612 19.5544553,49.53 C19.5544553,49.1462388 19.7076379,48.7783527 19.9800018,48.508 L28.3480018,39.596 C28.4248228,39.5061862 28.4248228,39.3738138 28.3480018,39.284 L16.3760018,27.104 C16.3130678,27.04071 16.218132,27.0217155 16.1356917,27.0559194 C16.0532515,27.0901233 16,27.1707465 16,27.26 L16,51.632 C16.0065867,53.5931905 17.5948112,55.1814151 19.5560018,55.188 L58.7040018,55.188 C60.6651923,55.1814151 62.2534168,53.5931905 62.2602124,51.632 L62.2602124,27.28 C62.2640581,27.1870526 62.2092086,27.1016021 62.1230139,27.0665855 C62.0368193,27.0315689 61.9379163,27.0545575 61.8760018,27.124 L61.8760018,27.124 Z" id="Path" fill="#363732" fill-rule="nonzero"></path>
                    <path d="M39.1360018,43.548 C40.775644,43.5640817 42.3517271,42.9145969 43.5040018,41.748 L60.9400018,24 C60.3210537,23.4872831 59.5437144,23.2046143 58.7400018,23.2 L19.5640018,23.2 C18.7599333,23.2026212 17.9819422,23.485527 17.3640018,24 L34.8040018,41.748 C35.9459876,42.9079215 37.5082834,43.5570748 39.1360018,43.548 L39.1360018,43.548 Z" id="Path" fill="#363732" fill-rule="nonzero"></path>
                </g>
            </g>
        </g>
    </g>
</svg>