<?xml version="1.0" encoding="UTF-8"?>
<svg width="195px" height="195px" viewBox="0 0 195 195" version="1.1" xmlns="http://www.w3.org/2000/svg" xmlns:xlink="http://www.w3.org/1999/xlink">
    <!-- Generator: Sketch 62 (91390) - https://sketch.com -->
    <title>MediumMonogram Copy</title>
    <desc>Created with Sketch.</desc>
    <g id="Page-1" stroke="none" stroke-width="1" fill="none" fill-rule="evenodd">
        <g id="MediumMonogram-Copy">
            <rect id="Rectangle-path" fill-opacity="0.01" fill="#FFFFFF" fill-rule="nonzero" x="0" y="0" width="195" height="195"></rect>
            <g id="Group-14" transform="translate(36.000000, 35.000000)" fill="#2C5D9B">
                <path d="M14.8526893,0 C23.0542784,0.00135317702 29.7013443,6.69281356 29.6999998,14.9458402 C29.6986548,23.2002201 23.0488994,29.8876209 14.8473103,29.886268 C6.64706592,29.886268 0,23.1961606 0,14.9444871 C0,6.69010721 6.64841067,0 14.8499998,0 C14.8499998,0 14.8513445,0 14.8526893,0 L14.8526893,0 Z M2.05342295,124.2 L27.6533004,124.2 L27.6533004,41.2434825 L2.05342295,41.2434825 L2.05342295,124.2 Z" id="Fill-6-Copy"></path>
                <path d="M41.85,41.2322462 L66.5609135,41.2322462 L66.5609135,52.5723637 L66.9123624,52.5723637 C71.9407853,43.9447785 81.3068987,38.7917793 91.2772339,39.1694223 C117.370964,39.1694223 122.175,56.3609754 122.175,78.6946992 L122.175,124.2 L96.4421812,124.2 L96.4421812,83.8558198 C96.4421812,74.2252474 96.265105,61.8469501 83.0398122,61.8469501 C69.6644777,61.8469501 67.6003913,72.3329718 67.6003913,83.1560298 L67.6003913,124.190525 L41.8675724,124.190525 L41.85,41.2322462" id="Fill-8-Copy"></path>
            </g>
        </g>
    </g>
</svg>