<?xml version="1.0" encoding="UTF-8"?>
<svg width="68px" height="88px" viewBox="0 0 68 88" version="1.1" xmlns="http://www.w3.org/2000/svg" xmlns:xlink="http://www.w3.org/1999/xlink">
    <title>Shape</title>
    <g id="Artifacts" stroke="none" stroke-width="1" fill="none" fill-rule="evenodd">
        <g id="Artboard" transform="translate(-76.000000, -206.000000)" fill="#025FA9" fill-rule="nonzero">
            <path d="M135.503298,236.459965 L130.395476,236.459965 L130.395476,226.582234 C130.395476,215.43601 121.469039,206.170008 110.273297,206.001126 C104.820542,205.94409 99.5704896,208.056341 95.6884993,211.86902 C91.806509,215.681698 89.6137618,220.879359 89.5969843,226.30827 L89.5969843,236.459965 L84.5004712,236.459965 C79.8118045,236.474388 76.0144873,240.25491 76,244.922839 L76,285.537126 C76.0144873,290.205055 79.8118045,293.985577 84.5004712,294 L135.503298,294 C140.191349,293.985566 143.987582,290.204448 144,285.537126 L144,244.922839 C143.987582,240.255517 140.191349,236.474399 135.503298,236.459965 L135.503298,236.459965 Z M112.979877,262.861879 L112.979877,277.408264 C112.990103,279.0066 111.753866,280.339113 110.152669,280.455649 C109.338634,280.4936 108.544467,280.198194 107.954855,279.63813 C107.365244,279.078066 107.03157,278.302152 107.031432,277.490829 L107.031432,262.854373 C104.191697,261.475615 102.683578,258.328019 103.394231,255.263166 C104.104883,252.198313 106.846225,250.02735 110.005654,250.02735 C113.165084,250.02735 115.906426,252.198313 116.617078,255.263166 C117.327731,258.328019 115.819612,261.475615 112.979877,262.854373 L112.979877,262.861879 Z M124.454571,236.459965 L95.5454293,236.459965 L95.5454293,226.30827 C95.5454293,218.363649 102.014429,211.923261 109.994346,211.923261 C117.974262,211.923261 124.443262,218.363649 124.443262,226.30827 L124.454571,236.459965 Z" id="Shape"></path>
        </g>
    </g>
</svg>